<mxfile host="app.diagrams.net" modified="2024-01-24T02:16:57.495Z" agent="Mozilla/5.0 (Windows NT 10.0; Win64; x64) AppleWebKit/537.36 (KHTML, like Gecko) Chrome/120.0.0.0 Safari/537.36" etag="OUhQTZWrPcV_Z06ZNZbj" version="22.1.18" type="device">
  <diagram name="Page-1" id="i5jvksYQAFy_5efEy8IT">
    <mxGraphModel dx="1290" dy="623" grid="1" gridSize="10" guides="1" tooltips="1" connect="1" arrows="1" fold="1" page="1" pageScale="1" pageWidth="850" pageHeight="1100" math="0" shadow="0">
      <root>
        <mxCell id="0" />
        <mxCell id="1" parent="0" />
        <mxCell id="TMSAu85FBwkTUe6IcaNT-6" style="edgeStyle=orthogonalEdgeStyle;rounded=0;orthogonalLoop=1;jettySize=auto;html=1;exitX=1;exitY=0.5;exitDx=0;exitDy=0;entryX=0.75;entryY=0;entryDx=0;entryDy=0;" edge="1" parent="1" source="TMSAu85FBwkTUe6IcaNT-1" target="TMSAu85FBwkTUe6IcaNT-2">
          <mxGeometry relative="1" as="geometry" />
        </mxCell>
        <mxCell id="TMSAu85FBwkTUe6IcaNT-1" value="Requirement &lt;br&gt;Analysis" style="rounded=1;whiteSpace=wrap;html=1;" vertex="1" parent="1">
          <mxGeometry x="305" y="130" width="120" height="60" as="geometry" />
        </mxCell>
        <mxCell id="TMSAu85FBwkTUe6IcaNT-2" value="System Design" style="rounded=1;whiteSpace=wrap;html=1;" vertex="1" parent="1">
          <mxGeometry x="400" y="220" width="120" height="60" as="geometry" />
        </mxCell>
        <mxCell id="TMSAu85FBwkTUe6IcaNT-8" style="edgeStyle=orthogonalEdgeStyle;rounded=0;orthogonalLoop=1;jettySize=auto;html=1;exitX=1;exitY=0.5;exitDx=0;exitDy=0;entryX=0.75;entryY=0;entryDx=0;entryDy=0;" edge="1" parent="1" source="TMSAu85FBwkTUe6IcaNT-3" target="TMSAu85FBwkTUe6IcaNT-4">
          <mxGeometry relative="1" as="geometry" />
        </mxCell>
        <mxCell id="TMSAu85FBwkTUe6IcaNT-3" value="Implementation" style="rounded=1;whiteSpace=wrap;html=1;" vertex="1" parent="1">
          <mxGeometry x="490" y="310" width="120" height="60" as="geometry" />
        </mxCell>
        <mxCell id="TMSAu85FBwkTUe6IcaNT-9" style="edgeStyle=orthogonalEdgeStyle;rounded=0;orthogonalLoop=1;jettySize=auto;html=1;exitX=1;exitY=0.5;exitDx=0;exitDy=0;entryX=0.75;entryY=0;entryDx=0;entryDy=0;" edge="1" parent="1" source="TMSAu85FBwkTUe6IcaNT-4" target="TMSAu85FBwkTUe6IcaNT-5">
          <mxGeometry relative="1" as="geometry" />
        </mxCell>
        <mxCell id="TMSAu85FBwkTUe6IcaNT-4" value="Testing" style="rounded=1;whiteSpace=wrap;html=1;" vertex="1" parent="1">
          <mxGeometry x="590" y="410" width="120" height="60" as="geometry" />
        </mxCell>
        <mxCell id="TMSAu85FBwkTUe6IcaNT-5" value="Deployment" style="rounded=1;whiteSpace=wrap;html=1;" vertex="1" parent="1">
          <mxGeometry x="680" y="500" width="120" height="60" as="geometry" />
        </mxCell>
        <mxCell id="TMSAu85FBwkTUe6IcaNT-7" style="edgeStyle=orthogonalEdgeStyle;rounded=0;orthogonalLoop=1;jettySize=auto;html=1;exitX=1;exitY=0.5;exitDx=0;exitDy=0;entryX=0.673;entryY=-0.037;entryDx=0;entryDy=0;entryPerimeter=0;" edge="1" parent="1" source="TMSAu85FBwkTUe6IcaNT-2" target="TMSAu85FBwkTUe6IcaNT-3">
          <mxGeometry relative="1" as="geometry" />
        </mxCell>
      </root>
    </mxGraphModel>
  </diagram>
</mxfile>
